HIERARCHY
ROOT Hips
{
  OFFSET 0.000000 95.000000 0.000000
  CHANNELS 6 Xposition Yposition Zposition Zrotation Xrotation Yrotation
  JOINT Spine
  {
    OFFSET 0.000000 10.000000 0.000000
    CHANNELS 3 Zrotation Xrotation Yrotation
    JOINT Spine1
    {
      OFFSET 0.000000 12.000000 0.000000
      CHANNELS 3 Zrotation Xrotation Yrotation
      JOINT Spine2
      {
        OFFSET 0.000000 12.000000 0.000000
        CHANNELS 3 Zrotation Xrotation Yrotation
        JOINT Neck
        {
          OFFSET 0.000000 10.000000 0.000000
          CHANNELS 3 Zrotation Xrotation Yrotation
          JOINT Head
          {
            OFFSET 0.000000 8.000000 0.000000
            CHANNELS 3 Zrotation Xrotation Yrotation
            End Site
            {
              OFFSET 0.000000 10.000000 0.000000
            }
          }
        }
        JOINT LeftShoulder
        {
          OFFSET 6.000000 8.000000 0.000000
          CHANNELS 3 Zrotation Xrotation Yrotation
          JOINT LeftArm
          {
            OFFSET 12.000000 0.000000 0.000000
            CHANNELS 3 Zrotation Xrotation Yrotation
            JOINT LeftForeArm
            {
              OFFSET 24.000000 0.000000 0.000000
              CHANNELS 3 Zrotation Xrotation Yrotation
              JOINT LeftHand
              {
                OFFSET 22.000000 0.000000 0.000000
                CHANNELS 3 Zrotation Xrotation Yrotation
                JOINT LeftHandThumb1
                {
                  OFFSET 1.800000 -1.400000 0.500000
                  CHANNELS 3 Zrotation Xrotation Yrotation
                  JOINT LeftHandThumb2
                  {
                    OFFSET 2.400000 0.000000 0.000000
                    CHANNELS 3 Zrotation Xrotation Yrotation
                    JOINT LeftHandThumb3
                    {
                      OFFSET 1.900000 0.000000 0.000000
                      CHANNELS 3 Zrotation Xrotation Yrotation
                      End Site
                      {
                        OFFSET 1.600000 0.000000 0.000000
                      }
                    }
                  }
                }
                JOINT LeftHandIndex1
                {
                  OFFSET 6.600000 1.200000 0.300000
                  CHANNELS 3 Zrotation Xrotation Yrotation
                  JOINT LeftHandIndex2
                  {
                    OFFSET 2.000000 0.000000 0.000000
                    CHANNELS 3 Zrotation Xrotation Yrotation
                    JOINT LeftHandIndex3
                    {
                      OFFSET 1.200000 0.000000 0.000000
                      CHANNELS 3 Zrotation Xrotation Yrotation
                      End Site
                      {
                        OFFSET 1.000000 0.000000 0.000000
                      }
                    }
                  }
                }
                JOINT LeftHandMiddle1
                {
                  OFFSET 7.200000 0.000000 0.300000
                  CHANNELS 3 Zrotation Xrotation Yrotation
                  JOINT LeftHandMiddle2
                  {
                    OFFSET 3.000000 0.000000 0.000000
                    CHANNELS 3 Zrotation Xrotation Yrotation
                    JOINT LeftHandMiddle3
                    {
                      OFFSET 2.000000 0.000000 0.000000
                      CHANNELS 3 Zrotation Xrotation Yrotation
                      End Site
                      {
                        OFFSET 1.600000 0.000000 0.000000
                      }
                    }
                  }
                }
                JOINT LeftHandRing1
                {
                  OFFSET 7.100000 -1.000000 0.400000
                  CHANNELS 3 Zrotation Xrotation Yrotation
                  JOINT LeftHandRing2
                  {
                    OFFSET 2.600000 0.000000 0.000000
                    CHANNELS 3 Zrotation Xrotation Yrotation
                    JOINT LeftHandRing3
                    {
                      OFFSET 1.600000 0.000000 0.000000
                      CHANNELS 3 Zrotation Xrotation Yrotation
                      End Site
                      {
                        OFFSET 1.300000 0.000000 0.000000
                      }
                    }
                  }
                }
                JOINT LeftHandPinky1
                {
                  OFFSET 6.500000 -2.000000 0.500000
                  CHANNELS 3 Zrotation Xrotation Yrotation
                  JOINT LeftHandPinky2
                  {
                    OFFSET 1.900000 0.000000 0.000000
                    CHANNELS 3 Zrotation Xrotation Yrotation
                    JOINT LeftHandPinky3
                    {
                      OFFSET 1.400000 0.000000 0.000000
                      CHANNELS 3 Zrotation Xrotation Yrotation
                      End Site
                      {
                        OFFSET 1.300000 0.000000 0.000000
                      }
                    }
                  }
                }
              }
            }
          }
        }
        JOINT RightShoulder
        {
          OFFSET -6.000000 8.000000 0.000000
          CHANNELS 3 Zrotation Xrotation Yrotation
          JOINT RightArm
          {
            OFFSET -12.000000 0.000000 0.000000
            CHANNELS 3 Zrotation Xrotation Yrotation
            JOINT RightForeArm
            {
              OFFSET -24.000000 0.000000 0.000000
              CHANNELS 3 Zrotation Xrotation Yrotation
              JOINT RightHand
              {
                OFFSET -22.000000 0.000000 0.000000
                CHANNELS 3 Zrotation Xrotation Yrotation
                JOINT RightHandThumb1
                {
                  OFFSET -1.800000 -1.400000 0.500000
                  CHANNELS 3 Zrotation Xrotation Yrotation
                  JOINT RightHandThumb2
                  {
                    OFFSET -2.400000 0.000000 0.000000
                    CHANNELS 3 Zrotation Xrotation Yrotation
                    JOINT RightHandThumb3
                    {
                      OFFSET -1.900000 0.000000 0.000000
                      CHANNELS 3 Zrotation Xrotation Yrotation
                      End Site
                      {
                        OFFSET -1.600000 0.000000 0.000000
                      }
                    }
                  }
                }
                JOINT RightHandIndex1
                {
                  OFFSET -6.600000 1.200000 0.300000
                  CHANNELS 3 Zrotation Xrotation Yrotation
                  JOINT RightHandIndex2
                  {
                    OFFSET -2.000000 0.000000 0.000000
                    CHANNELS 3 Zrotation Xrotation Yrotation
                    JOINT RightHandIndex3
                    {
                      OFFSET -1.200000 0.000000 0.000000
                      CHANNELS 3 Zrotation Xrotation Yrotation
                      End Site
                      {
                        OFFSET -1.000000 0.000000 0.000000
                      }
                    }
                  }
                }
                JOINT RightHandMiddle1
                {
                  OFFSET -7.200000 0.000000 0.300000
                  CHANNELS 3 Zrotation Xrotation Yrotation
                  JOINT RightHandMiddle2
                  {
                    OFFSET -3.000000 0.000000 0.000000
                    CHANNELS 3 Zrotation Xrotation Yrotation
                    JOINT RightHandMiddle3
                    {
                      OFFSET -2.000000 0.000000 0.000000
                      CHANNELS 3 Zrotation Xrotation Yrotation
                      End Site
                      {
                        OFFSET -1.600000 0.000000 0.000000
                      }
                    }
                  }
                }
                JOINT RightHandRing1
                {
                  OFFSET -7.100000 -1.000000 0.400000
                  CHANNELS 3 Zrotation Xrotation Yrotation
                  JOINT RightHandRing2
                  {
                    OFFSET -2.600000 0.000000 0.000000
                    CHANNELS 3 Zrotation Xrotation Yrotation
                    JOINT RightHandRing3
                    {
                      OFFSET -1.600000 0.000000 0.000000
                      CHANNELS 3 Zrotation Xrotation Yrotation
                      End Site
                      {
                        OFFSET -1.300000 0.000000 0.000000
                      }
                    }
                  }
                }
                JOINT RightHandPinky1
                {
                  OFFSET -6.500000 -2.000000 0.500000
                  CHANNELS 3 Zrotation Xrotation Yrotation
                  JOINT RightHandPinky2
                  {
                    OFFSET -1.900000 0.000000 0.000000
                    CHANNELS 3 Zrotation Xrotation Yrotation
                    JOINT RightHandPinky3
                    {
                      OFFSET -1.400000 0.000000 0.000000
                      CHANNELS 3 Zrotation Xrotation Yrotation
                      End Site
                      {
                        OFFSET -1.300000 0.000000 0.000000
                      }
                    }
                  }
                }
              }
            }
          }
        }
      }
    }
  }
  JOINT LeftUpLeg
  {
    OFFSET 10.000000 -5.000000 0.000000
    CHANNELS 3 Zrotation Xrotation Yrotation
    JOINT LeftLeg
    {
      OFFSET 0.000000 -42.000000 0.000000
      CHANNELS 3 Zrotation Xrotation Yrotation
      JOINT LeftFoot
      {
        OFFSET 0.000000 -42.000000 4.000000
        CHANNELS 3 Zrotation Xrotation Yrotation
        End Site
        {
          OFFSET 0.000000 0.000000 12.000000
        }
      }
    }
  }
  JOINT RightUpLeg
  {
    OFFSET -10.000000 -5.000000 0.000000
    CHANNELS 3 Zrotation Xrotation Yrotation
    JOINT RightLeg
    {
      OFFSET 0.000000 -42.000000 0.000000
      CHANNELS 3 Zrotation Xrotation Yrotation
      JOINT RightFoot
      {
        OFFSET 0.000000 -42.000000 4.000000
        CHANNELS 3 Zrotation Xrotation Yrotation
        End Site
        {
          OFFSET 0.000000 0.000000 12.000000
        }
      }
    }
  }
}
MOTION
Frames: 7
Frame Time: 0.033333
0.0000 95.0000 0.0000 0.0000 0.0000 0.0000 0.0000 0.0000 0.0000 0.0000 0.0000 0.0000 0.0000 0.0000 0.0000 0.0000 0.0000 0.0000 0.0000 0.0000 0.0000 0.0000 0.0000 0.0000 -76.0029 4.7148 6.0321 -3.1212 9.2392 -12.1979 80.2896 -30.4663 -158.8742 65.2498 -14.3215 -11.5256 68.5525 0.0000 0.0000 24.6135 0.0000 0.0000 -60.4791 -5.9052 -23.6644 85.5140 0.0000 0.0000 83.1115 0.0000 0.0000 -53.2798 -7.0570 -18.7874 102.0479 0.0000 0.0000 74.5369 0.0000 0.0000 -44.0540 -7.0903 -17.0464 110.0000 0.0000 0.0000 90.0000 0.0000 0.0000 -44.1636 -5.4956 -11.7795 36.0097 0.0000 0.0000 90.0000 0.0000 0.0000 0.0000 0.0000 0.0000 65.0347 -22.1636 34.1578 -163.3537 51.0582 -65.0913 -38.7396 -46.6503 -7.9119 -40.7293 -6.1813 -9.7872 6.2496 0.0000 0.0000 1.5195 0.0000 0.0000 18.1056 0.9812 8.1195 3.7615 0.0000 0.0000 2.8617 0.0000 0.0000 6.8264 -0.2546 9.0389 2.8243 0.0000 0.0000 2.8096 0.0000 0.0000 -1.4546 -0.9135 6.5177 4.5305 0.0000 0.0000 3.3108 0.0000 0.0000 -11.1068 -1.3242 2.4181 5.2394 0.0000 0.0000 2.5098 0.0000 0.0000 0.0000 0.0000 0.0000 0.0000 0.0000 0.0000 0.0000 0.0000 0.0000 0.0000 0.0000 0.0000 0.0000 0.0000 0.0000 0.0000 0.0000 0.0000
0.0000 95.0000 0.0000 0.0000 0.0000 0.0000 0.0000 0.0000 0.0000 0.0000 0.0000 0.0000 0.0000 0.0000 0.0000 0.0000 0.0000 0.0000 0.0000 0.0000 0.0000 0.0000 0.0000 0.0000 -75.7158 4.7005 6.0449 -3.1731 9.2128 -12.2322 80.5514 -30.5333 -159.0089 65.2498 -14.3215 -11.5256 68.5525 0.0000 0.0000 24.6135 0.0000 0.0000 -60.4791 -5.9052 -23.6644 85.5140 0.0000 0.0000 83.1115 0.0000 0.0000 -53.2798 -7.0570 -18.7874 102.0479 0.0000 0.0000 74.5369 0.0000 0.0000 -44.0540 -7.0903 -17.0464 110.0000 0.0000 0.0000 90.0000 0.0000 0.0000 -44.1636 -5.4956 -11.7795 36.0097 0.0000 0.0000 90.0000 0.0000 0.0000 0.0000 0.0000 0.0000 65.1854 -22.0871 33.9510 -163.6810 50.8424 -65.1021 -35.7233 -45.8866 -10.2427 -41.8582 -6.3722 -10.2325 5.7431 0.0000 0.0000 2.0087 0.0000 0.0000 18.0418 1.0231 9.9387 2.1343 0.0000 0.0000 3.0795 0.0000 0.0000 6.3398 -0.3266 10.6642 1.0454 0.0000 0.0000 2.8891 0.0000 0.0000 -2.0153 -1.1397 8.3716 3.2367 0.0000 0.0000 3.0523 0.0000 0.0000 -10.4297 -1.4324 3.1004 6.3990 0.0000 0.0000 3.9394 0.0000 0.0000 0.0000 0.0000 0.0000 0.0000 0.0000 0.0000 0.0000 0.0000 0.0000 0.0000 0.0000 0.0000 0.0000 0.0000 0.0000 0.0000 0.0000 0.0000
0.0000 95.0000 0.0000 0.0000 0.0000 0.0000 0.0000 0.0000 0.0000 0.0000 0.0000 0.0000 0.0000 0.0000 0.0000 0.0000 0.0000 0.0000 0.0000 0.0000 0.0000 0.0000 0.0000 0.0000 -75.6300 4.7023 6.0566 -3.3714 9.2100 -12.2697 80.4358 -30.4888 -158.9317 65.2498 -14.3215 -11.5256 68.5525 0.0000 0.0000 24.6135 0.0000 0.0000 -60.4791 -5.9052 -23.6644 85.5140 0.0000 0.0000 83.1115 0.0000 0.0000 -53.2798 -7.0570 -18.7874 102.0479 0.0000 0.0000 74.5369 0.0000 0.0000 -44.0540 -7.0903 -17.0464 110.0000 0.0000 0.0000 90.0000 0.0000 0.0000 -44.1636 -5.4956 -11.7795 36.0097 0.0000 0.0000 90.0000 0.0000 0.0000 0.0000 0.0000 0.0000 65.3956 -22.1311 33.8871 -164.0959 50.2304 -65.2231 -38.3920 -47.7492 -6.9280 -41.8934 -6.1353 -11.0556 6.5999 0.0000 0.0000 3.5056 0.0000 0.0000 18.3523 1.0006 9.4654 1.8506 0.0000 0.0000 3.1640 0.0000 0.0000 6.9691 -0.3272 10.1416 1.1523 0.0000 0.0000 2.9189 0.0000 0.0000 -2.0520 -1.0879 7.9535 1.8575 0.0000 0.0000 3.2455 0.0000 0.0000 -13.8508 -1.2689 1.3252 3.9681 0.0000 0.0000 1.6391 0.0000 0.0000 0.0000 0.0000 0.0000 0.0000 0.0000 0.0000 0.0000 0.0000 0.0000 0.0000 0.0000 0.0000 0.0000 0.0000 0.0000 0.0000 0.0000 0.0000
0.0000 95.0000 0.0000 0.0000 0.0000 0.0000 0.0000 0.0000 0.0000 0.0000 0.0000 0.0000 0.0000 0.0000 0.0000 0.0000 0.0000 0.0000 0.0000 0.0000 0.0000 0.0000 0.0000 0.0000 -75.6011 4.7026 6.0602 -3.4389 9.2099 -12.2836 80.3968 -30.4726 -158.9042 65.2498 -14.3215 -11.5256 68.5525 0.0000 0.0000 24.6135 0.0000 0.0000 -60.4791 -5.9052 -23.6644 85.5140 0.0000 0.0000 83.1115 0.0000 0.0000 -53.2798 -7.0570 -18.7874 102.0479 0.0000 0.0000 74.5369 0.0000 0.0000 -44.0540 -7.0903 -17.0464 110.0000 0.0000 0.0000 90.0000 0.0000 0.0000 -44.1636 -5.4956 -11.7795 36.0097 0.0000 0.0000 90.0000 0.0000 0.0000 0.0000 0.0000 0.0000 65.5965 -22.1662 33.8160 -164.1070 50.2369 -65.3101 -39.5504 -47.9526 -5.9679 -40.3917 -5.7380 -10.8837 6.7746 0.0000 0.0000 3.1471 0.0000 0.0000 20.0546 0.9308 8.5758 2.5292 0.0000 0.0000 3.3852 0.0000 0.0000 8.1093 -0.3072 9.1038 1.2273 0.0000 0.0000 2.9971 0.0000 0.0000 0.1672 -1.1060 7.8548 1.6384 0.0000 0.0000 3.6902 0.0000 0.0000 -9.6266 -1.2932 2.6251 5.1546 0.0000 0.0000 3.1886 0.0000 0.0000 0.0000 0.0000 0.0000 0.0000 0.0000 0.0000 0.0000 0.0000 0.0000 0.0000 0.0000 0.0000 0.0000 0.0000 0.0000 0.0000 0.0000 0.0000
0.0000 95.0000 0.0000 0.0000 0.0000 0.0000 0.0000 0.0000 0.0000 0.0000 0.0000 0.0000 0.0000 0.0000 0.0000 0.0000 0.0000 0.0000 0.0000 0.0000 0.0000 0.0000 0.0000 0.0000 -75.5282 4.6895 6.0512 -3.3877 9.1864 -12.2626 80.5255 -30.5191 -158.9866 65.2498 -14.3215 -11.5256 68.5525 0.0000 0.0000 24.6135 0.0000 0.0000 -60.4791 -5.9052 -23.6644 85.5140 0.0000 0.0000 83.1115 0.0000 0.0000 -53.2798 -7.0570 -18.7874 102.0479 0.0000 0.0000 74.5369 0.0000 0.0000 -44.0540 -7.0903 -17.0464 110.0000 0.0000 0.0000 90.0000 0.0000 0.0000 -44.1636 -5.4956 -11.7795 36.0097 0.0000 0.0000 90.0000 0.0000 0.0000 0.0000 0.0000 0.0000 65.8704 -22.2103 33.7139 -164.4673 49.7894 -65.4650 -41.9281 -50.7226 -2.8817 -40.7118 -6.0659 -10.1414 5.9904 0.0000 0.0000 1.9495 0.0000 0.0000 20.3420 0.9227 8.9266 2.0940 0.0000 0.0000 3.5437 0.0000 0.0000 8.5624 -0.3516 9.4657 0.8892 0.0000 0.0000 2.9679 0.0000 0.0000 0.1337 -1.1264 8.0018 2.5612 0.0000 0.0000 3.7864 0.0000 0.0000 -11.1179 -1.2287 1.9449 4.8258 0.0000 0.0000 2.7373 0.0000 0.0000 0.0000 0.0000 0.0000 0.0000 0.0000 0.0000 0.0000 0.0000 0.0000 0.0000 0.0000 0.0000 0.0000 0.0000 0.0000 0.0000 0.0000 0.0000
0.0000 95.0000 0.0000 0.0000 0.0000 0.0000 0.0000 0.0000 0.0000 0.0000 0.0000 0.0000 0.0000 0.0000 0.0000 0.0000 0.0000 0.0000 0.0000 0.0000 0.0000 0.0000 0.0000 0.0000 -75.8165 4.7123 6.0492 -3.1719 9.2351 -12.2395 80.4466 -30.4982 -158.9451 65.2498 -14.3215 -11.5256 68.5525 0.0000 0.0000 24.6135 0.0000 0.0000 -60.4791 -5.9052 -23.6644 85.5140 0.0000 0.0000 83.1115 0.0000 0.0000 -53.2798 -7.0570 -18.7874 102.0479 0.0000 0.0000 74.5369 0.0000 0.0000 -44.0540 -7.0903 -17.0464 110.0000 0.0000 0.0000 90.0000 0.0000 0.0000 -44.1636 -5.4956 -11.7795 36.0097 0.0000 0.0000 90.0000 0.0000 0.0000 0.0000 0.0000 0.0000 65.9201 -22.2102 33.6836 -164.4873 49.7019 -65.4450 -39.4284 -45.7538 -7.4327 -40.3976 -5.8666 -10.4825 6.6311 0.0000 0.0000 2.3291 0.0000 0.0000 19.1272 0.9561 8.3054 2.3822 0.0000 0.0000 3.8253 0.0000 0.0000 7.6940 -0.2514 8.5096 1.5431 0.0000 0.0000 3.2157 0.0000 0.0000 -0.3550 -1.0316 7.3645 1.9927 0.0000 0.0000 4.2575 0.0000 0.0000 -12.1198 -1.1282 1.1419 4.0197 0.0000 0.0000 2.0194 0.0000 0.0000 0.0000 0.0000 0.0000 0.0000 0.0000 0.0000 0.0000 0.0000 0.0000 0.0000 0.0000 0.0000 0.0000 0.0000 0.0000 0.0000 0.0000 0.0000
0.0000 95.0000 0.0000 0.0000 0.0000 0.0000 0.0000 0.0000 0.0000 0.0000 0.0000 0.0000 0.0000 0.0000 0.0000 0.0000 0.0000 0.0000 0.0000 0.0000 0.0000 0.0000 0.0000 0.0000 -75.9623 4.7179 6.0405 -3.3286 9.2391 -12.2298 80.1142 -30.4053 -158.7654 65.2498 -14.3215 -11.5256 68.5525 0.0000 0.0000 24.6135 0.0000 0.0000 -60.4791 -5.9052 -23.6644 85.5140 0.0000 0.0000 83.1115 0.0000 0.0000 -53.2798 -7.0570 -18.7874 102.0479 0.0000 0.0000 74.5369 0.0000 0.0000 -44.0540 -7.0903 -17.0464 110.0000 0.0000 0.0000 90.0000 0.0000 0.0000 -44.1636 -5.4956 -11.7795 36.0097 0.0000 0.0000 90.0000 0.0000 0.0000 0.0000 0.0000 0.0000 65.7379 -22.2433 33.8431 -164.0658 49.8371 -65.2596 -37.3828 -41.9354 -10.6619 -40.4080 -5.8280 -10.6145 6.1014 0.0000 0.0000 1.8324 0.0000 0.0000 18.8300 0.9622 8.1516 3.3101 0.0000 0.0000 3.8311 0.0000 0.0000 7.1101 -0.1923 7.8668 2.1305 0.0000 0.0000 3.0413 0.0000 0.0000 -0.7697 -0.8758 6.2261 2.9141 0.0000 0.0000 4.2008 0.0000 0.0000 -10.7058 -0.9896 0.9011 4.2151 0.0000 0.0000 2.6617 0.0000 0.0000 0.0000 0.0000 0.0000 0.0000 0.0000 0.0000 0.0000 0.0000 0.0000 0.0000 0.0000 0.0000 0.0000 0.0000 0.0000 0.0000 0.0000 0.0000
